<svg id="Layer_1" xmlns="http://www.w3.org/2000/svg" viewBox="0 0 210 40"><style>.st0{fill:#fff}</style><path class="st0" d="M13.6 33.9c-.1 0-.2 0-.3-.1l-7.7-4.4c-.2-.1-.3-.3-.3-.6V11.2c0-.2.1-.4.3-.6.2-.1.5-.1.7 0l15.2 8.8c.2.1.3.3.3.6v8.5c0 .2-.1.4-.3.6-.2.1-.5.1-.7 0l-6.5-3.8v7.9c0 .2-.1.4-.3.6-.2 0-.3.1-.4.1zm-7-5.5l6.4 3.7v-7.9c0-.2.1-.4.3-.6.2-.1.5-.1.7 0l6.5 3.8v-7l-13.9-8v16z"/><path class="st0" d="M21.1 29.1c-.1 0-.2 0-.3-.1-.2-.1-.3-.3-.3-.6V20c0-.2.1-.4.3-.6l7.5-4.4c.2-.1.5-.1.7 0 .2.1.3.3.3.6v8.6c0 .2-.1.5-.3.6l-7.5 4.3h-.4zm.6-8.7v7l6.2-3.6v-7.1l-6.2 3.7z"/><path class="st0" d="M21.1 20.7c-.1 0-.2 0-.3-.1L5.6 11.8c-.2-.1-.3-.3-.3-.6s.1-.4.3-.6l7.7-4.4c.2-.1.5-.1.7 0L29 15c.2.1.3.3.3.6s-.1.4-.3.6l-7.5 4.4c-.2 0-.3.1-.4.1zM7.2 11.2l13.9 8 6.2-3.7-13.7-8-6.4 3.7z"/><path class="st0" d="M28.6 16.2c-.1 0-.2 0-.3-.1l-7.7-4.5c-.2-.1-.3-.3-.3-.6 0-.2.1-.5.3-.6l7.6-4.3c.2-.1.4-.1.6 0l7.8 4.4c.2.1.3.3.3.6 0 .2-.1.5-.3.6L28.9 16c-.1.2-.2.2-.3.2zm-6.4-5.1l6.4 3.7 6.3-3.6-6.4-3.7-6.3 3.6z"/><path class="st0" d="M28.6 33.9c-.1 0-.2 0-.3-.1-.2-.1-.3-.3-.3-.6V15.6c0-.2.1-.5.3-.6l7.7-4.3c.2-.1.5-.1.7 0 .2.1.3.3.3.6v17.5c0 .2-.1.5-.3.6L29 33.8c-.2 0-.3.1-.4.1zm.7-18V32l6.4-3.7v-16l-6.4 3.6z"/><path class="st0" d="M28.6 33.9c-.1 0-.2 0-.3-.1L20.7 29c-.2-.1-.3-.3-.3-.6 0-.2.1-.4.3-.6l7.5-4.3c.2-.1.5-.1.7 0 .2.1.3.3.3.6v9c0 .2-.1.5-.3.6-.1.1-.2.2-.3.2zm-6.2-5.4L28 32v-6.7"/><path class="st0" d="M13.6 33.9c-.1 0-.2 0-.3-.1-.2-.1-.3-.3-.3-.6v-9c0-.2.1-.4.3-.6.2-.1.5-.1.7 0l7.5 4.3c.2.1.3.3.3.6 0 .2-.1.4-.3.6L14 33.8c-.2 0-.3.1-.4.1zm.6-8.6V32l5.6-3.5-5.6-3.2zm44.7 4.6l3.3-20.7h4l5.2 12.4 5.2-12.4h4l3.3 20.7h-4.8l-1.6-12.4-5.2 12.4h-1.7l-5.2-12.4-1.6 12.4h-4.9zm51.5-18.2c2 1.9 3.2 4.6 3.2 7.8 0 2.8-1 5.6-3.2 7.8-1.9 1.9-4.5 3-8 3-3.9 0-6.5-1.6-8.1-3-2-1.9-3.2-4.7-3.2-7.7s1.3-6 3.2-7.9c1.4-1.4 4-3 8.1-3 3.2 0 5.9 1 8 3zm-12.6 3.2c-.9.9-1.8 2.4-1.8 4.7 0 1.9.6 3.4 1.9 4.7 1.3 1.3 2.8 1.7 4.4 1.7 2.1 0 3.6-.8 4.6-1.8.8-.8 1.8-2.2 1.8-4.6 0-2.1-.9-3.7-1.8-4.7-1-1-2.7-1.8-4.6-1.8-1.7 0-3.3.7-4.5 1.8zm30.6-5.7c2.7 0 5.6.4 8.2 2.9 1.8 1.8 3 4.2 3 7.4 0 3.3-1.1 5.6-2.8 7.3-2.9 2.9-6.4 3.1-8.2 3.1h-6.7V9.2h6.5zm-1.8 16.6h1.3c1 0 3.2-.1 4.7-1.4 1.1-.9 2-2.7 2-5 0-2.2-.9-3.7-1.7-4.5-1.6-1.6-3.6-1.8-5-1.8h-1.3v12.7zm38.7-4.4c0 2-.2 4.4-2.3 6.6-2 2-4.3 2.4-6.5 2.4s-4.5-.3-6.5-2.4-2.3-4.6-2.3-6.6V9.2h4.8v12.1c0 .9.1 2.4 1.1 3.5.8.9 2 1.1 2.9 1.1.9 0 2-.2 2.9-1.1 1-1.1 1.1-2.6 1.1-3.5V9.2h4.8v12.2zm14-12.2v16.7h6.4v4h-11.2V9.2h4.8zm25.5 4h-6.9v4h6.6v4h-6.6v4.6h6.9v4H193V9.2h11.7v4z"/></svg>