<?xml version="1.0" encoding="UTF-8"?>
<svg width="32px" height="28px" viewBox="0 0 32 28" version="1.1" xmlns="http://www.w3.org/2000/svg" xmlns:xlink="http://www.w3.org/1999/xlink">
    <!-- Generator: Sketch 51.3 (57544) - http://www.bohemiancoding.com/sketch -->
    <title>module-logo-alt@2x</title>
    <desc>Created with Sketch.</desc>
    <defs></defs>
    <g id="Page-1" stroke="none" stroke-width="1" fill="none" fill-rule="evenodd">
        <g id="module-logo-alt" fill="#000000" fill-rule="nonzero">
            <path d="M8.6,27.9 C8.5,27.9 8.4,27.9 8.3,27.8 L0.6,23.4 C0.4,23.3 0.3,23.1 0.3,22.8 L0.3,5.2 C0.3,5 0.4,4.8 0.6,4.6 C0.8,4.5 1.1,4.5 1.3,4.6 L16.5,13.4 C16.7,13.5 16.8,13.7 16.8,14 L16.8,22.5 C16.8,22.7 16.7,22.9 16.5,23.1 C16.3,23.2 16,23.2 15.8,23.1 L9.3,19.3 L9.3,27.2 C9.3,27.4 9.2,27.6 9,27.8 C8.8,27.8 8.7,27.9 8.6,27.9 Z M1.6,22.4 L8,26.1 L8,18.2 C8,18 8.1,17.8 8.3,17.6 C8.5,17.5 8.8,17.5 9,17.6 L15.5,21.4 L15.5,14.4 L1.6,6.4 L1.6,22.4 Z" id="Shape"></path>
            <path d="M16.1,23.1 C16,23.1 15.9,23.1 15.8,23 C15.6,22.9 15.5,22.7 15.5,22.4 L15.5,14 C15.5,13.8 15.6,13.6 15.8,13.4 L23.3,9 C23.5,8.9 23.8,8.9 24,9 C24.2,9.1 24.3,9.3 24.3,9.6 L24.3,18.2 C24.3,18.4 24.2,18.7 24,18.8 L16.5,23.1 L16.1,23.1 Z M16.7,14.4 L16.7,21.4 L22.9,17.8 L22.9,10.7 L16.7,14.4 Z" id="Shape"></path>
            <path d="M16.1,14.7 C16,14.7 15.9,14.7 15.8,14.6 L0.6,5.8 C0.4,5.7 0.3,5.5 0.3,5.2 C0.3,4.9 0.4,4.8 0.6,4.6 L8.3,0.2 C8.5,0.1 8.8,0.1 9,0.2 L24,9 C24.2,9.1 24.3,9.3 24.3,9.6 C24.3,9.9 24.2,10 24,10.2 L16.5,14.6 C16.3,14.6 16.2,14.7 16.1,14.7 Z M2.2,5.2 L16.1,13.2 L22.3,9.5 L8.6,1.5 L2.2,5.2 Z" id="Shape"></path>
            <path d="M23.6,10.2 C23.5,10.2 23.4,10.2 23.3,10.1 L15.6,5.6 C15.4,5.5 15.3,5.3 15.3,5 C15.3,4.8 15.4,4.5 15.6,4.4 L23.2,0.1 C23.4,-1.33226763e-15 23.6,-1.33226763e-15 23.8,0.1 L31.6,4.5 C31.8,4.6 31.9,4.8 31.9,5.1 C31.9,5.3 31.8,5.6 31.6,5.7 L23.9,10 C23.8,10.2 23.7,10.2 23.6,10.2 Z M17.2,5.1 L23.6,8.8 L29.9,5.2 L23.5,1.5 L17.2,5.1 Z" id="Shape"></path>
            <path d="M23.6,27.9 C23.5,27.9 23.4,27.9 23.3,27.8 C23.1,27.7 23,27.5 23,27.2 L23,9.6 C23,9.4 23.1,9.1 23.3,9 L31,4.7 C31.2,4.6 31.5,4.6 31.7,4.7 C31.9,4.8 32,5 32,5.3 L32,22.8 C32,23 31.9,23.3 31.7,23.4 L24,27.8 C23.8,27.8 23.7,27.9 23.6,27.9 Z M24.3,9.9 L24.3,26 L30.7,22.3 L30.7,6.3 L24.3,9.9 Z" id="Shape"></path>
            <path d="M23.6,27.9 C23.5,27.9 23.4,27.9 23.3,27.8 L15.7,23 C15.5,22.9 15.4,22.7 15.4,22.4 C15.4,22.2 15.5,22 15.7,21.8 L23.2,17.5 C23.4,17.4 23.7,17.4 23.9,17.5 C24.1,17.6 24.2,17.8 24.2,18.1 L24.2,27.1 C24.2,27.3 24.1,27.6 23.9,27.7 C23.8,27.8 23.7,27.9 23.6,27.9 Z M17.4,22.5 L23,26 L23,19.3 L17.4,22.5 Z" id="Shape"></path>
            <path d="M8.6,27.9 C8.5,27.9 8.4,27.9 8.3,27.8 C8.1,27.7 8,27.5 8,27.2 L8,18.2 C8,18 8.1,17.8 8.3,17.6 C8.5,17.5 8.8,17.5 9,17.6 L16.5,21.9 C16.7,22 16.8,22.2 16.8,22.5 C16.8,22.7 16.7,22.9 16.5,23.1 L9,27.8 C8.8,27.8 8.7,27.9 8.6,27.9 Z M9.2,19.3 L9.2,26 L14.8,22.5 L9.2,19.3 Z" id="Shape"></path>
        </g>
    </g>
</svg>